<svg xmlns="http://www.w3.org/2000/svg" width="769" height="450" viewBox="0 0 769 450"><title>Asset 1</title><g id="Layer_2" data-name="Layer 2"><g id="Ñëîé_1" data-name="Ñëîé 1"><path d="M768.3,450H.7a.7.7,0,0,1-.7-.7V.7A.7.7,0,0,1,.7,0H768.3a.7.7,0,0,1,.7.7V449.3A.7.7,0,0,1,768.3,450ZM1.4,448.6H767.6V1.4H1.4Z" fill="#969696"/><path d="M722.9,423.7H46.1a.7.7,0,0,1-.7-.7V27.4a.7.7,0,0,1,.7-.7H722.9a.7.7,0,0,1,.7.7V423A.7.7,0,0,1,722.9,423.7ZM46.8,422.3H722.2V28.1H46.8Z" fill="#969696"/><path d="M685.6,401.8H83.4a.7.7,0,0,1-.7-.7V49.3a.7.7,0,0,1,.7-.7H685.6a.7.7,0,0,1,.7.7V401.1A.7.7,0,0,1,685.6,401.8ZM84.1,400.4H684.9V50H84.1Z" fill="#969696"/><path d="M653.2,382.9H115.8a.7.7,0,0,1-.7-.7V68.2a.7.7,0,0,1,.7-.7H653.2a.7.7,0,0,1,.7.7v314A.7.7,0,0,1,653.2,382.9Zm-536.6-1.4H652.5V68.9H116.5Z" fill="#969696"/><path d="M624.5,366.2H144.5a.7.7,0,0,1-.7-.7V84.9a.7.7,0,0,1,.7-.7H624.5a.7.7,0,0,1,.7.7V365.5A.7.7,0,0,1,624.5,366.2Zm-479.4-1.4H623.9V85.6H145.2Z" fill="#969696"/><path d="M598.1,350.7H170.9a.7.7,0,0,1-.7-.7V100.4a.7.7,0,0,1,.7-.7H598.1a.7.7,0,0,1,.7.7V350A.7.7,0,0,1,598.1,350.7Zm-426.5-1.4H597.4V101.1H171.6Z" fill="#969696"/><path d="M539.9,316.7H229.1a.7.7,0,0,1-.7-.7V134.4a.7.7,0,0,1,.7-.7H539.9a.7.7,0,0,1,.7.7V316A.7.7,0,0,1,539.9,316.7Zm-310.1-1.4H539.2V135.1H229.8Z" fill="#969696"/><path d="M556.6,326.4H212.4a.7.7,0,0,1-.7-.7V124.7a.7.7,0,0,1,.7-.7H556.6a.7.7,0,0,1,.7.7V325.8A.7.7,0,0,1,556.6,326.4Zm-343.4-1.4H555.9V125.4H213.1Z" fill="#969696"/><path d="M575.9,337.7H193.1a.7.7,0,0,1-.7-.7V113.4a.7.7,0,0,1,.7-.7H575.9a.7.7,0,0,1,.7.7V337A.7.7,0,0,1,575.9,337.7Zm-382.1-1.4H575.2V114.1H193.8Z" fill="#969696"/><path d="M525.3,308.2H243.7a.7.7,0,0,1-.7-.7V142.9a.7.7,0,0,1,.7-.7H525.3a.7.7,0,0,1,.7.7V307.5A.7.7,0,0,1,525.3,308.2Zm-280.9-1.4H524.6V143.6H244.4Z" fill="#969696"/><path d="M514.1,301.6H254.9a.7.7,0,0,1-.7-.7V149.5a.7.7,0,0,1,.7-.7H514.1a.7.7,0,0,1,.7.7V300.9A.7.7,0,0,1,514.1,301.6Zm-258.5-1.4H513.4V150.2H255.6Z" fill="#969696"/><path d="M504.6,296.1H264.4a.7.7,0,0,1-.7-.7V155.1a.7.7,0,0,1,.7-.7H504.6a.7.7,0,0,1,.7.7V295.4A.7.7,0,0,1,504.6,296.1Zm-239.4-1.4H503.9V155.7H265.1Z" fill="#969696"/><path d="M504.5,173.5a.7.7,0,0,1-.3-1.3l263.6-116a.7.7,0,1,1,.6,1.3l-263.6,116Z" fill="#969696"/><path d="M504.6,191a.7.7,0,0,1-.2-1.4l263.5-77.5a.7.7,0,0,1,.4,1.3L504.8,191Z" fill="#969696"/><path d="M504.7,208.5a.7.7,0,0,1-.1-1.4l263.3-39.1a.7.7,0,0,1,.8.6.7.7,0,0,1-.6.8L504.8,208.5Z" fill="#969696"/><path d="M504.7,226a.7.7,0,0,1,0-1.4l263.2-.6a.7.7,0,0,1,0,1.4l-263.2.6Z" fill="#969696"/><path d="M767.8,281.4h-.1l-263-37.9a.7.7,0,0,1-.6-.8.7.7,0,0,1,.8-.6l263,37.9a.7.7,0,0,1-.1,1.4Z" fill="#969696"/><path d="M767.7,337.4h-.2L504.7,261a.7.7,0,1,1,.4-1.3L767.9,336a.7.7,0,0,1-.2,1.4Z" fill="#969696"/><path d="M767.7,393.4h-.3L504.6,278.5a.7.7,0,1,1,.6-1.3L767.9,392.1a.7.7,0,0,1-.3,1.3Z" fill="#969696"/><path d="M767.6,449.4h-.4L504.6,295.9a.7.7,0,0,1,.7-1.2L767.9,448.1a.7.7,0,0,1-.4,1.3Z" fill="#969696"/><path d="M504.4,156a.7.7,0,0,1-.4-1.3L767.9.2a.7.7,0,1,1,.7,1.2L504.8,155.9Z" fill="#969696"/><path d="M477.8,155.4a.7.7,0,0,1-.4-1.3L682.6.3a.7.7,0,0,1,.8,1.1L478.2,155.3Z" fill="#969696"/><path d="M451.2,155.5l-.5-.2a.7.7,0,0,1,0-1L597.2.4a.7.7,0,1,1,1,1L451.7,155.2Z" fill="#969696"/><path d="M424.6,155.5h-.3a.7.7,0,0,1-.3-1L511.9.5a.7.7,0,1,1,1.2.7L425.2,155.1A.7.7,0,0,1,424.6,155.5Z" fill="#969696"/><path d="M398,155.5h-.1a.7.7,0,0,1-.6-.8L426.6.8A.7.7,0,1,1,428,1L398.6,154.9A.7.7,0,0,1,398,155.5Z" fill="#969696"/><path d="M371.3,155.5a.7.7,0,0,1-.7-.6L341.3,1.1a.7.7,0,1,1,1.4-.3L372,154.7a.7.7,0,0,1-.6.8Z" fill="#969696"/><path d="M344.7,155.6a.7.7,0,0,1-.6-.4L256.2,1.3a.7.7,0,1,1,1.2-.7l87.9,153.9a.7.7,0,0,1-.3,1Z" fill="#969696"/><path d="M318.1,155.6l-.5-.2L171,1.5a.7.7,0,0,1,1-1L318.6,154.4a.7.7,0,0,1,0,1Z" fill="#969696"/><path d="M291.5,155.6h-.4L85.9,1.6A.7.7,0,1,1,86.7.5L291.9,154.4a.7.7,0,0,1-.4,1.3Z" fill="#969696"/><path d="M264.9,156.3h-.4L.7,1.6A.7.7,0,0,1,1.4.4L265.2,155a.7.7,0,0,1-.4,1.3Z" fill="#969696"/><path d="M684.1,449.9h-.4L477.6,296a.7.7,0,0,1,.8-1.1L684.5,448.7a.7.7,0,0,1-.4,1.3Z" fill="#969696"/><path d="M598.9,449.9l-.5-.2L451,296a.7.7,0,0,1,1-1L599.4,448.7a.7.7,0,0,1,0,1Z" fill="#969696"/><path d="M513.6,449.9a.7.7,0,0,1-.6-.3L424.4,295.7a.7.7,0,0,1,1.2-.7l88.7,153.8a.7.7,0,0,1-.3,1Z" fill="#969696"/><path d="M428.4,449.8a.7.7,0,0,1-.7-.6l-30.1-154a.7.7,0,0,1,.6-.8.7.7,0,0,1,.8.6l30.1,154a.7.7,0,0,1-.6.8Z" fill="#969696"/><path d="M343.2,449.8H343a.7.7,0,0,1-.6-.8l28.3-153.5a.7.7,0,0,1,.8-.6.7.7,0,0,1,.6.8L343.9,449.2A.7.7,0,0,1,343.2,449.8Z" fill="#969696"/><path d="M257.9,449.8h-.3a.7.7,0,0,1-.3-1L344,295.1a.7.7,0,1,1,1.2.7L258.5,449.4A.7.7,0,0,1,257.9,449.8Z" fill="#969696"/><path d="M172.7,449.8l-.5-.2a.7.7,0,0,1,0-1L317.8,295a.7.7,0,0,1,1,1L173.2,449.5Z" fill="#969696"/><path d="M87.5,449.7a.7.7,0,0,1-.4-1.3L291.2,295a.7.7,0,1,1,.8,1.1L87.9,449.6Z" fill="#969696"/><path d="M264.3,173.8H264L.9,57.7a.7.7,0,1,1,.6-1.3l263.2,116a.7.7,0,0,1-.3,1.3Z" fill="#969696"/><path d="M264.3,191.3h-.2L1,113.7a.7.7,0,0,1,.4-1.3l263,77.5a.7.7,0,0,1-.2,1.4Z" fill="#969696"/><path d="M264.2,208.8h-.1L1.2,169.7a.7.7,0,1,1,.2-1.4l262.9,39.1a.7.7,0,0,1-.1,1.4Z" fill="#969696"/><path d="M264.1,226.3,1.4,225.7a.7.7,0,0,1,0-1.4l262.7.6a.7.7,0,0,1,0,1.4Z" fill="#969696"/><path d="M1.5,281.7a.7.7,0,0,1-.1-1.4L264,242.4a.7.7,0,1,1,.2,1.4L1.6,281.7Z" fill="#969696"/><path d="M1.6,337.6a.7.7,0,0,1-.2-1.4l262.4-76.4a.7.7,0,1,1,.4,1.3L1.8,337.6Z" fill="#969696"/><path d="M1.6,393.6a.7.7,0,0,1-.3-1.3L263.6,277.4a.7.7,0,0,1,.6,1.3L1.9,393.6Z" fill="#969696"/><path d="M1.7,449.6a.7.7,0,0,1-.4-1.3L264,295a.7.7,0,1,1,.7,1.2L2.1,449.5Z" fill="#969696"/><path d="M291.3,295.5a.7.7,0,0,1-.7-.7V154.9a.7.7,0,1,1,1.4,0V294.8A.7.7,0,0,1,291.3,295.5Z" fill="#969696"/><path d="M318,295.6a.7.7,0,0,1-.7-.7V155a.7.7,0,1,1,1.4,0V294.9A.7.7,0,0,1,318,295.6Z" fill="#969696"/><path d="M344.7,295.7a.7.7,0,0,1-.7-.7V155.1a.7.7,0,0,1,1.4,0V295A.7.7,0,0,1,344.7,295.7Z" fill="#969696"/><path d="M371.4,295.8a.7.7,0,0,1-.7-.7V155.2a.7.7,0,1,1,1.4,0V295.1A.7.7,0,0,1,371.4,295.8Z" fill="#969696"/><path d="M398.1,295.9a.7.7,0,0,1-.7-.7V155.3a.7.7,0,0,1,1.4,0V295.2A.7.7,0,0,1,398.1,295.9Z" fill="#969696"/><path d="M424.8,296a.7.7,0,0,1-.7-.7V155.4a.7.7,0,1,1,1.4,0V295.3A.7.7,0,0,1,424.8,296Z" fill="#969696"/><path d="M451.5,296.1a.7.7,0,0,1-.7-.7V155.5a.7.7,0,1,1,1.4,0V295.4A.7.7,0,0,1,451.5,296.1Z" fill="#969696"/><path d="M478.3,296.2a.7.7,0,0,1-.7-.7V155.6a.7.7,0,1,1,1.4,0V295.5A.7.7,0,0,1,478.3,296.2Z" fill="#969696"/><path d="M504.2,173.6H264.2a.7.7,0,1,1,0-1.4H504.2a.7.7,0,1,1,0,1.4Z" fill="#969696"/><path d="M504.3,191.1H264.2a.7.7,0,1,1,0-1.4H504.3a.7.7,0,0,1,0,1.4Z" fill="#969696"/><path d="M504.5,208.7H264.2a.7.7,0,1,1,0-1.4H504.5a.7.7,0,0,1,0,1.4Z" fill="#969696"/><path d="M504.6,226.2H264.2a.7.7,0,1,1,0-1.4H504.6a.7.7,0,0,1,0,1.4Z" fill="#969696"/><path d="M504.8,243.7H264.2a.7.7,0,0,1,0-1.4H504.8a.7.7,0,1,1,0,1.4Z" fill="#969696"/><path d="M504.9,261.3H264.2a.7.7,0,0,1,0-1.4H504.9a.7.7,0,1,1,0,1.4Z" fill="#969696"/><path d="M505.1,278.8H264.1a.7.7,0,0,1,0-1.4H505.1a.7.7,0,1,1,0,1.4Z" fill="#969696"/></g></g></svg>